<?xml version="1.0" encoding="UTF-8"?>
<svg id="Layer_1" data-name="Layer 1" xmlns="http://www.w3.org/2000/svg" version="1.1" viewBox="0 0 460.8 345.6">
  <defs>
    <style>
      .cls-1, .cls-2 {
        fill: #b22040;
      }

      .cls-3, .cls-4, .cls-5, .cls-6, .cls-2 {
        stroke-width: 0px;
      }

      .cls-3, .cls-7, .cls-8, .cls-9, .cls-10 {
        fill: none;
      }

      .cls-4 {
        fill: #dde4e8;
      }

      .cls-7, .cls-11, .cls-9, .cls-10 {
        stroke: #000;
      }

      .cls-7, .cls-9 {
        stroke-width: .8px;
      }

      .cls-8 {
        stroke: #b0b0b0;
      }

      .cls-8, .cls-11 {
        stroke-linejoin: round;
      }

      .cls-8, .cls-11, .cls-10 {
        stroke-width: .8px;
      }

      .cls-8, .cls-10 {
        stroke-linecap: square;
      }

      .cls-12 {
        font-family: MyriadPro-Regular, 'Myriad Pro';
        font-size: 12.3px;
      }

      .cls-5, .cls-13, .cls-11 {
        fill: #000;
      }

      .cls-6 {
        fill: #1f77b4;
      }

      .cls-9 {
        stroke-dasharray: 0 0 11.6 11.6;
      }
    </style>
  </defs>
  <path class="cls-4" d="M0,345.6h460.8V0H0v345.6Z"/>
  <path class="cls-4" d="M49.5,305.9h357.1V39.7H49.5v266.1Z"/>
  <rect class="cls-3" x="57.6" y="41.5" width="357.1" height="266.1"/>
  <path class="cls-6" d="M73.8,307.6h3.2v-49h-3.2v49Z"/>
  <rect class="cls-3" x="57.6" y="41.5" width="357.1" height="266.1"/>
  <path class="cls-6" d="M77.1,307.6h3.2v-123.5h-3.2v123.5Z"/>
  <rect class="cls-3" x="57.6" y="41.5" width="357.1" height="266.1"/>
  <path class="cls-6" d="M80.3,307.6h3.2v-165.1h-3.2v165.1Z"/>
  <rect class="cls-3" x="57.6" y="41.5" width="357.1" height="266.1"/>
  <path class="cls-6" d="M83.6,307.6h3.2-3.2Z"/>
  <rect class="cls-3" x="57.6" y="41.5" width="357.1" height="266.1"/>
  <path class="cls-6" d="M86.8,307.6h3.2V122.3h-3.2v185.3Z"/>
  <rect class="cls-3" x="57.6" y="41.5" width="357.1" height="266.1"/>
  <path class="cls-6" d="M90.1,307.6h3.2V99.9h-3.2v207.7Z"/>
  <rect class="cls-3" x="57.6" y="41.5" width="357.1" height="266.1"/>
  <path class="cls-6" d="M93.3,307.6h3.2-3.2Z"/>
  <rect class="cls-3" x="57.6" y="41.5" width="357.1" height="266.1"/>
  <path class="cls-6" d="M96.6,307.6h3.2V89.3h-3.2v218.3Z"/>
  <rect class="cls-3" x="57.6" y="41.5" width="357.1" height="266.1"/>
  <path class="cls-6" d="M99.8,307.6h3.2V74.4h-3.2v233.2Z"/>
  <rect class="cls-3" x="57.6" y="41.5" width="357.1" height="266.1"/>
  <path class="cls-6" d="M103.1,307.6h3.2-3.2Z"/>
  <rect class="cls-3" x="57.6" y="41.5" width="357.1" height="266.1"/>
  <path class="cls-6" d="M106.3,307.6h3.2V101h-3.2v206.6Z"/>
  <rect class="cls-3" x="57.6" y="41.5" width="357.1" height="266.1"/>
  <path class="cls-6" d="M109.5,307.6h3.2V84h-3.2v223.6Z"/>
  <rect class="cls-3" x="57.6" y="41.5" width="357.1" height="266.1"/>
  <path class="cls-6" d="M112.8,307.6h3.2-3.2Z"/>
  <rect class="cls-3" x="57.6" y="41.5" width="357.1" height="266.1"/>
  <path class="cls-6" d="M116,307.6h3.2V57.3h-3.2v250.2Z"/>
  <rect class="cls-3" x="57.6" y="41.5" width="357.1" height="266.1"/>
  <path class="cls-6" d="M119.3,307.6h3.2V106.3h-3.2v201.3Z"/>
  <rect class="cls-3" x="57.6" y="41.5" width="357.1" height="266.1"/>
  <path class="cls-6" d="M122.5,307.6h3.2-3.2Z"/>
  <rect class="cls-3" x="57.6" y="41.5" width="357.1" height="266.1"/>
  <path class="cls-6" d="M125.8,307.6h3.2V54.1h-3.2v253.4Z"/>
  <rect class="cls-3" x="57.6" y="41.5" width="357.1" height="266.1"/>
  <path class="cls-6" d="M129,307.6h3.2V61.6h-3.2v246Z"/>
  <rect class="cls-3" x="57.6" y="41.5" width="357.1" height="266.1"/>
  <path class="cls-6" d="M132.3,307.6h3.2-3.2Z"/>
  <rect class="cls-3" x="57.6" y="41.5" width="357.1" height="266.1"/>
  <path class="cls-6" d="M135.5,307.6h3.2V60.5h-3.2v247.1Z"/>
  <rect class="cls-3" x="57.6" y="41.5" width="357.1" height="266.1"/>
  <path class="cls-6" d="M138.8,307.6h3.2V57.3h-3.2v250.2Z"/>
  <rect class="cls-3" x="57.6" y="41.5" width="357.1" height="266.1"/>
  <path class="cls-6" d="M142,307.6h3.2-3.2Z"/>
  <rect class="cls-3" x="57.6" y="41.5" width="357.1" height="266.1"/>
  <path class="cls-6" d="M145.3,307.6h3.2V60.5h-3.2v247.1Z"/>
  <rect class="cls-3" x="57.6" y="41.5" width="357.1" height="266.1"/>
  <path class="cls-6" d="M148.5,307.6h3.2V58.4h-3.2v249.2Z"/>
  <rect class="cls-3" x="57.6" y="41.5" width="357.1" height="266.1"/>
  <path class="cls-6" d="M151.7,307.6h3.2-3.2Z"/>
  <rect class="cls-3" x="57.6" y="41.5" width="357.1" height="266.1"/>
  <path class="cls-6" d="M155,307.6h3.2V124.4h-3.2v183.2Z"/>
  <rect class="cls-3" x="57.6" y="41.5" width="357.1" height="266.1"/>
  <path class="cls-6" d="M158.2,307.6h3.2V99.9h-3.2v207.7Z"/>
  <rect class="cls-3" x="57.6" y="41.5" width="357.1" height="266.1"/>
  <path class="cls-6" d="M161.5,307.6h3.2v-178.9h-3.2v178.9Z"/>
  <rect class="cls-3" x="57.6" y="41.5" width="357.1" height="266.1"/>
  <path class="cls-6" d="M164.7,307.6h3.2-3.2Z"/>
  <rect class="cls-3" x="57.6" y="41.5" width="357.1" height="266.1"/>
  <path class="cls-6" d="M168,307.6h3.2V112.7h-3.2v194.9Z"/>
  <rect class="cls-3" x="57.6" y="41.5" width="357.1" height="266.1"/>
  <path class="cls-6" d="M171.2,307.6h3.2V113.8h-3.2v193.8Z"/>
  <rect class="cls-3" x="57.6" y="41.5" width="357.1" height="266.1"/>
  <path class="cls-6" d="M174.5,307.6h3.2-3.2Z"/>
  <rect class="cls-3" x="57.6" y="41.5" width="357.1" height="266.1"/>
  <path class="cls-6" d="M177.7,307.6h3.2V127.6h-3.2v180Z"/>
  <rect class="cls-3" x="57.6" y="41.5" width="357.1" height="266.1"/>
  <path class="cls-6" d="M181,307.6h3.2v-172.5h-3.2v172.5Z"/>
  <rect class="cls-3" x="57.6" y="41.5" width="357.1" height="266.1"/>
  <path class="cls-6" d="M184.2,307.6h3.2-3.2Z"/>
  <rect class="cls-3" x="57.6" y="41.5" width="357.1" height="266.1"/>
  <path class="cls-6" d="M187.5,307.6h3.2V118h-3.2v189.5Z"/>
  <rect class="cls-3" x="57.6" y="41.5" width="357.1" height="266.1"/>
  <path class="cls-6" d="M190.7,307.6h3.2v-161.9h-3.2v161.9Z"/>
  <rect class="cls-3" x="57.6" y="41.5" width="357.1" height="266.1"/>
  <path class="cls-6" d="M194,307.6h3.2-3.2Z"/>
  <rect class="cls-3" x="57.6" y="41.5" width="357.1" height="266.1"/>
  <path class="cls-6" d="M197.2,307.6h3.2v-133.1h-3.2v133.1Z"/>
  <rect class="cls-3" x="57.6" y="41.5" width="357.1" height="266.1"/>
  <path class="cls-6" d="M200.4,307.6h3.2v-127.8h-3.2v127.8Z"/>
  <rect class="cls-3" x="57.6" y="41.5" width="357.1" height="266.1"/>
  <path class="cls-6" d="M203.7,307.6h3.2-3.2Z"/>
  <rect class="cls-3" x="57.6" y="41.5" width="357.1" height="266.1"/>
  <path class="cls-6" d="M206.9,307.6h3.2v-115h-3.2v115Z"/>
  <rect class="cls-3" x="57.6" y="41.5" width="357.1" height="266.1"/>
  <path class="cls-6" d="M210.2,307.6h3.2v-94.8h-3.2v94.8Z"/>
  <rect class="cls-3" x="57.6" y="41.5" width="357.1" height="266.1"/>
  <path class="cls-6" d="M213.4,307.6h3.2-3.2Z"/>
  <rect class="cls-3" x="57.6" y="41.5" width="357.1" height="266.1"/>
  <path class="cls-6" d="M216.7,307.6h3.2v-92.6h-3.2v92.6Z"/>
  <rect class="cls-3" x="57.6" y="41.5" width="357.1" height="266.1"/>
  <path class="cls-6" d="M219.9,307.6h3.2v-87.3h-3.2v87.3Z"/>
  <rect class="cls-3" x="57.6" y="41.5" width="357.1" height="266.1"/>
  <path class="cls-6" d="M223.2,307.6h3.2-3.2Z"/>
  <rect class="cls-3" x="57.6" y="41.5" width="357.1" height="266.1"/>
  <path class="cls-6" d="M226.4,307.6h3.2v-75.6h-3.2v75.6Z"/>
  <rect class="cls-3" x="57.6" y="41.5" width="357.1" height="266.1"/>
  <path class="cls-6" d="M229.7,307.6h3.2v-72.4h-3.2v72.4Z"/>
  <rect class="cls-3" x="57.6" y="41.5" width="357.1" height="266.1"/>
  <path class="cls-6" d="M232.9,307.6h3.2-3.2Z"/>
  <rect class="cls-3" x="57.6" y="41.5" width="357.1" height="266.1"/>
  <path class="cls-6" d="M236.2,307.6h3.2v-79.9h-3.2v79.9Z"/>
  <rect class="cls-3" x="57.6" y="41.5" width="357.1" height="266.1"/>
  <path class="cls-6" d="M239.4,307.6h3.2v-67.1h-3.2v67.1Z"/>
  <rect class="cls-3" x="57.6" y="41.5" width="357.1" height="266.1"/>
  <path class="cls-6" d="M242.7,307.6h3.2v-75.6h-3.2v75.6Z"/>
  <rect class="cls-3" x="57.6" y="41.5" width="357.1" height="266.1"/>
  <path class="cls-6" d="M245.9,307.6h3.2-3.2Z"/>
  <rect class="cls-3" x="57.6" y="41.5" width="357.1" height="266.1"/>
  <path class="cls-6" d="M249.1,307.6h3.2v-56.4h-3.2v56.4Z"/>
  <rect class="cls-3" x="57.6" y="41.5" width="357.1" height="266.1"/>
  <path class="cls-6" d="M252.4,307.6h3.2v-47.9h-3.2v47.9Z"/>
  <rect class="cls-3" x="57.6" y="41.5" width="357.1" height="266.1"/>
  <path class="cls-6" d="M255.6,307.6h3.2-3.2Z"/>
  <rect class="cls-3" x="57.6" y="41.5" width="357.1" height="266.1"/>
  <path class="cls-6" d="M258.9,307.6h3.2v-77.7h-3.2v77.7Z"/>
  <rect class="cls-3" x="57.6" y="41.5" width="357.1" height="266.1"/>
  <path class="cls-6" d="M262.1,307.6h3.2v-61.8h-3.2v61.8Z"/>
  <rect class="cls-3" x="57.6" y="41.5" width="357.1" height="266.1"/>
  <path class="cls-6" d="M265.4,307.6h3.2-3.2Z"/>
  <rect class="cls-3" x="57.6" y="41.5" width="357.1" height="266.1"/>
  <path class="cls-6" d="M268.6,307.6h3.2v-59.6h-3.2v59.6Z"/>
  <rect class="cls-3" x="57.6" y="41.5" width="357.1" height="266.1"/>
  <path class="cls-6" d="M271.9,307.6h3.2v-50h-3.2v50Z"/>
  <rect class="cls-3" x="57.6" y="41.5" width="357.1" height="266.1"/>
  <path class="cls-6" d="M275.1,307.6h3.2-3.2Z"/>
  <rect class="cls-3" x="57.6" y="41.5" width="357.1" height="266.1"/>
  <path class="cls-6" d="M278.4,307.6h3.2v-45.8h-3.2v45.8Z"/>
  <rect class="cls-3" x="57.6" y="41.5" width="357.1" height="266.1"/>
  <path class="cls-6" d="M281.6,307.6h3.2v-49h-3.2v49Z"/>
  <rect class="cls-3" x="57.6" y="41.5" width="357.1" height="266.1"/>
  <path class="cls-6" d="M284.9,307.6h3.2-3.2Z"/>
  <rect class="cls-3" x="57.6" y="41.5" width="357.1" height="266.1"/>
  <path class="cls-6" d="M288.1,307.6h3.2v-30.9h-3.2v30.9Z"/>
  <rect class="cls-3" x="57.6" y="41.5" width="357.1" height="266.1"/>
  <path class="cls-6" d="M291.4,307.6h3.2v-26.6h-3.2v26.6Z"/>
  <rect class="cls-3" x="57.6" y="41.5" width="357.1" height="266.1"/>
  <path class="cls-6" d="M294.6,307.6h3.2-3.2Z"/>
  <rect class="cls-3" x="57.6" y="41.5" width="357.1" height="266.1"/>
  <path class="cls-6" d="M297.8,307.6h3.2v-20.2h-3.2v20.2Z"/>
  <rect class="cls-3" x="57.6" y="41.5" width="357.1" height="266.1"/>
  <path class="cls-6" d="M301.1,307.6h3.2v-18.1h-3.2v18.1Z"/>
  <rect class="cls-3" x="57.6" y="41.5" width="357.1" height="266.1"/>
  <path class="cls-6" d="M304.3,307.6h3.2-3.2Z"/>
  <rect class="cls-3" x="57.6" y="41.5" width="357.1" height="266.1"/>
  <path class="cls-6" d="M307.6,307.6h3.2v-18.1h-3.2v18.1Z"/>
  <rect class="cls-3" x="57.6" y="41.5" width="357.1" height="266.1"/>
  <path class="cls-6" d="M310.8,307.6h3.2v-10.6h-3.2v10.6Z"/>
  <rect class="cls-3" x="57.6" y="41.5" width="357.1" height="266.1"/>
  <path class="cls-6" d="M314.1,307.6h3.2-3.2Z"/>
  <rect class="cls-3" x="57.6" y="41.5" width="357.1" height="266.1"/>
  <path class="cls-6" d="M317.3,307.6h3.2v-6.4h-3.2v6.4Z"/>
  <rect class="cls-3" x="57.6" y="41.5" width="357.1" height="266.1"/>
  <path class="cls-6" d="M320.6,307.6h3.2v-5.3h-3.2v5.3Z"/>
  <rect class="cls-3" x="57.6" y="41.5" width="357.1" height="266.1"/>
  <path class="cls-6" d="M323.8,307.6h3.2v-2.1h-3.2v2.1Z"/>
  <rect class="cls-3" x="57.6" y="41.5" width="357.1" height="266.1"/>
  <path class="cls-6" d="M327.1,307.6h3.2-3.2Z"/>
  <rect class="cls-3" x="57.6" y="41.5" width="357.1" height="266.1"/>
  <path class="cls-6" d="M330.3,307.6h3.2v-7.5h-3.2v7.5Z"/>
  <rect class="cls-3" x="57.6" y="41.5" width="357.1" height="266.1"/>
  <path class="cls-6" d="M333.6,307.6h3.2v-1.1h-3.2v1.1Z"/>
  <rect class="cls-3" x="57.6" y="41.5" width="357.1" height="266.1"/>
  <path class="cls-6" d="M336.8,307.6h3.2-3.2Z"/>
  <rect class="cls-3" x="57.6" y="41.5" width="357.1" height="266.1"/>
  <path class="cls-6" d="M340,307.6h3.2-3.2Z"/>
  <rect class="cls-3" x="57.6" y="41.5" width="357.1" height="266.1"/>
  <path class="cls-6" d="M343.3,307.6h3.2-3.2Z"/>
  <rect class="cls-3" x="57.6" y="41.5" width="357.1" height="266.1"/>
  <path class="cls-6" d="M346.5,307.6h3.2-3.2Z"/>
  <rect class="cls-3" x="57.6" y="41.5" width="357.1" height="266.1"/>
  <path class="cls-6" d="M349.8,307.6h3.2v-1.1h-3.2v1.1Z"/>
  <rect class="cls-3" x="57.6" y="41.5" width="357.1" height="266.1"/>
  <path class="cls-6" d="M353,307.6h3.2-3.2Z"/>
  <rect class="cls-3" x="57.6" y="41.5" width="357.1" height="266.1"/>
  <path class="cls-6" d="M356.3,307.6h3.2-3.2Z"/>
  <rect class="cls-3" x="57.6" y="41.5" width="357.1" height="266.1"/>
  <path class="cls-6" d="M359.5,307.6h3.2v-2.1h-3.2v2.1Z"/>
  <rect class="cls-3" x="57.6" y="41.5" width="357.1" height="266.1"/>
  <path class="cls-6" d="M362.8,307.6h3.2-3.2Z"/>
  <rect class="cls-3" x="57.6" y="41.5" width="357.1" height="266.1"/>
  <path class="cls-6" d="M366,307.6h3.2-3.2Z"/>
  <rect class="cls-3" x="57.6" y="41.5" width="357.1" height="266.1"/>
  <path class="cls-6" d="M369.3,307.6h3.2-3.2Z"/>
  <rect class="cls-3" x="57.6" y="41.5" width="357.1" height="266.1"/>
  <path class="cls-6" d="M372.5,307.6h3.2-3.2Z"/>
  <rect class="cls-3" x="57.6" y="41.5" width="357.1" height="266.1"/>
  <path class="cls-6" d="M375.8,307.6h3.2-3.2Z"/>
  <rect class="cls-3" x="57.6" y="41.5" width="357.1" height="266.1"/>
  <path class="cls-6" d="M379,307.6h3.2-3.2Z"/>
  <rect class="cls-3" x="57.6" y="41.5" width="357.1" height="266.1"/>
  <path class="cls-6" d="M382.3,307.6h3.2-3.2Z"/>
  <rect class="cls-3" x="57.6" y="41.5" width="357.1" height="266.1"/>
  <path class="cls-6" d="M385.5,307.6h3.2-3.2Z"/>
  <rect class="cls-3" x="57.6" y="41.5" width="357.1" height="266.1"/>
  <path class="cls-2" d="M388.7,307.6h3.2v-2.1h-3.2v2.1Z"/>
  <rect class="cls-3" x="57.6" y="41.5" width="357.1" height="266.1"/>
  <path class="cls-6" d="M392,307.6h3.2-3.2Z"/>
  <rect class="cls-3" x="57.6" y="41.5" width="357.1" height="266.1"/>
  <path class="cls-2" d="M395.2,307.6h3.2v-1.1h-3.2v1.1Z"/>
  <rect class="cls-3" x="57.6" y="41.5" width="357.1" height="266.1"/>
  <path id="m7e07ac80d6" class="cls-11" d="M83.4,307.6v3.5"/>
  <path id="DejaVuSans-32" class="cls-5" d="M78.9,321.4h3.4v.8h-4.6v-.8c.4-.4.9-.9,1.5-1.6.6-.7,1.1-1.1,1.2-1.3.3-.4.5-.7.7-.9.1-.2.2-.5.2-.7,0-.4-.1-.7-.4-.9-.3-.2-.6-.4-1.1-.4s-.6,0-1,.2c-.3.1-.7.3-1.1.5v-1c.4-.2.8-.3,1.1-.4.3,0,.7-.1.9-.1.8,0,1.4.2,1.8.6.4.4.7.9.7,1.5s0,.6-.2.9c-.1.3-.3.6-.6.9,0,0-.3.4-.8.8-.4.5-1.1,1.1-1.8,1.9Z"/>
  <path id="DejaVuSans-30" class="cls-5" d="M86.6,315.5c-.5,0-.9.3-1.1.8-.3.5-.4,1.3-.4,2.3s.1,1.7.4,2.2c.3.5.6.8,1.1.8s.9-.3,1.2-.8c.3-.5.4-1.2.4-2.2s-.1-1.8-.4-2.3c-.3-.5-.6-.8-1.2-.8ZM86.6,314.8c.8,0,1.4.3,1.9,1,.4.6.6,1.6.6,2.8s-.2,2.2-.6,2.8c-.4.6-1.1,1-1.9,1s-1.4-.3-1.9-1c-.4-.6-.6-1.6-.6-2.8s.2-2.2.6-2.8c.4-.6,1.1-1,1.9-1Z"/>
  <rect class="cls-3" x="57.6" y="41.5" width="357.1" height="266.1"/>
  <path id="m7e07ac80d6-2" data-name="m7e07ac80d6" class="cls-11" d="M131.1,307.6v3.5"/>
  <path id="DejaVuSans-33" class="cls-5" d="M128.8,318.3c.5.1.8.3,1.1.6.3.3.4.7.4,1.2,0,.7-.2,1.3-.7,1.7-.5.4-1.2.6-2.1.6s-.6,0-.9,0c-.3,0-.7-.2-1-.3v-1c.3.2.6.3.9.4.3,0,.7.1,1,.1.6,0,1.1-.1,1.4-.4s.5-.6.5-1.1-.2-.8-.5-1c-.3-.2-.7-.4-1.3-.4h-.9v-.8h.9c.5,0,.9,0,1.1-.3s.4-.5.4-.8-.1-.7-.4-.9c-.3-.2-.6-.3-1.1-.3s-.6,0-.9,0c-.3,0-.6.1-1,.3v-.9c.4-.1.7-.2,1.1-.2s.6,0,.9,0c.7,0,1.3.2,1.8.5.4.3.7.8.7,1.4s-.1.7-.3,1-.6.5-1,.6Z"/>
  <path id="DejaVuSans-30-2" data-name="DejaVuSans-30" class="cls-5" d="M134.3,315.5c-.5,0-.9.3-1.1.8-.3.5-.4,1.3-.4,2.3s.1,1.7.4,2.2c.3.5.6.8,1.1.8s.9-.3,1.2-.8c.3-.5.4-1.2.4-2.2s-.1-1.8-.4-2.3c-.3-.5-.6-.8-1.2-.8ZM134.3,314.8c.8,0,1.4.3,1.9,1,.4.6.6,1.6.6,2.8s-.2,2.2-.6,2.8c-.4.6-1.1,1-1.9,1s-1.4-.3-1.9-1c-.4-.6-.6-1.6-.6-2.8s.2-2.2.6-2.8c.4-.6,1.1-1,1.9-1Z"/>
  <rect class="cls-3" x="57.6" y="41.5" width="357.1" height="266.1"/>
  <path id="m7e07ac80d6-3" data-name="m7e07ac80d6" class="cls-11" d="M178.9,307.6v3.5"/>
  <path id="DejaVuSans-34" class="cls-5" d="M176.3,315.8l-2.5,3.9h2.5v-3.9ZM176,314.9h1.2v4.8h1v.8h-1v1.7h-1v-1.7h-3.3v-1l3-4.6Z"/>
  <path id="DejaVuSans-30-3" data-name="DejaVuSans-30" class="cls-5" d="M182,315.5c-.5,0-.9.3-1.1.8-.3.5-.4,1.3-.4,2.3s.1,1.7.4,2.2c.3.5.6.8,1.1.8s.9-.3,1.2-.8c.3-.5.4-1.2.4-2.2s-.1-1.8-.4-2.3c-.3-.5-.6-.8-1.2-.8ZM182,314.8c.8,0,1.4.3,1.9,1,.4.6.6,1.6.6,2.8s-.2,2.2-.6,2.8c-.4.6-1.1,1-1.9,1s-1.4-.3-1.9-1c-.4-.6-.6-1.6-.6-2.8s.2-2.2.6-2.8c.4-.6,1.1-1,1.9-1Z"/>
  <rect class="cls-3" x="57.6" y="41.5" width="357.1" height="266.1"/>
  <path id="m7e07ac80d6-4" data-name="m7e07ac80d6" class="cls-11" d="M226.6,307.6v3.5"/>
  <path id="DejaVuSans-35" class="cls-5" d="M221.3,314.9h3.9v.8h-3v1.8c.1,0,.3,0,.4-.1.1,0,.3,0,.4,0,.8,0,1.5.2,1.9.7.5.4.7,1,.7,1.8s-.2,1.4-.7,1.8c-.5.4-1.2.7-2.1.7s-.6,0-.9,0c-.3,0-.6-.1-1-.2v-1c.3.2.6.3.9.4s.6.1,1,.1c.6,0,1-.1,1.3-.4.3-.3.5-.7.5-1.2s-.2-.9-.5-1.2c-.3-.3-.8-.4-1.3-.4s-.5,0-.8,0c-.3,0-.5.1-.8.3v-3.7Z"/>
  <path id="DejaVuSans-30-4" data-name="DejaVuSans-30" class="cls-5" d="M229.8,315.5c-.5,0-.9.3-1.1.8-.3.5-.4,1.3-.4,2.3s.1,1.7.4,2.2c.3.5.6.8,1.1.8s.9-.3,1.2-.8c.3-.5.4-1.2.4-2.2s-.1-1.8-.4-2.3c-.3-.5-.6-.8-1.2-.8ZM229.8,314.8c.8,0,1.4.3,1.9,1,.4.6.6,1.6.6,2.8s-.2,2.2-.6,2.8c-.4.6-1.1,1-1.9,1s-1.4-.3-1.9-1c-.4-.6-.6-1.6-.6-2.8s.2-2.2.6-2.8c.4-.6,1.1-1,1.9-1Z"/>
  <rect class="cls-3" x="57.6" y="41.5" width="357.1" height="266.1"/>
  <path id="m7e07ac80d6-5" data-name="m7e07ac80d6" class="cls-11" d="M274.4,307.6v3.5"/>
  <path id="DejaVuSans-36" class="cls-5" d="M271.3,318.1c-.4,0-.8.2-1.1.5-.3.3-.4.7-.4,1.2s.1.9.4,1.2c.3.3.6.5,1.1.5s.8-.2,1.1-.5c.3-.3.4-.7.4-1.2s-.1-.9-.4-1.2c-.3-.3-.6-.5-1.1-.5ZM273.3,315.1v.9c-.2-.1-.5-.2-.8-.3-.3,0-.5,0-.8,0-.7,0-1.1.2-1.5.7-.3.4-.5,1.1-.6,2,.2-.3.4-.5.7-.7.3-.2.6-.2,1-.2.7,0,1.3.2,1.7.7.4.4.6,1,.6,1.8s-.2,1.4-.7,1.8c-.4.5-1,.7-1.8.7s-1.5-.3-1.9-1c-.4-.6-.7-1.6-.7-2.8s.3-2.1.8-2.8c.5-.7,1.3-1,2.2-1s.5,0,.8,0,.5.1.8.2Z"/>
  <path id="DejaVuSans-30-5" data-name="DejaVuSans-30" class="cls-5" d="M277.5,315.5c-.5,0-.9.3-1.1.8-.3.5-.4,1.3-.4,2.3s.1,1.7.4,2.2c.3.5.6.8,1.1.8s.9-.3,1.2-.8c.3-.5.4-1.2.4-2.2s-.1-1.8-.4-2.3c-.3-.5-.6-.8-1.2-.8ZM277.5,314.8c.8,0,1.4.3,1.9,1,.4.6.6,1.6.6,2.8s-.2,2.2-.6,2.8c-.4.6-1.1,1-1.9,1s-1.4-.3-1.9-1c-.4-.6-.6-1.6-.6-2.8s.2-2.2.6-2.8c.4-.6,1.1-1,1.9-1Z"/>
  <rect class="cls-3" x="57.6" y="41.5" width="357.1" height="266.1"/>
  <path id="m7e07ac80d6-6" data-name="m7e07ac80d6" class="cls-11" d="M322.1,307.6v3.5"/>
  <path id="DejaVuSans-37" class="cls-5" d="M316.6,314.9h4.7v.4l-2.6,6.9h-1l2.5-6.5h-3.5v-.8Z"/>
  <path id="DejaVuSans-30-6" data-name="DejaVuSans-30" class="cls-5" d="M325.3,315.5c-.5,0-.9.3-1.1.8-.3.5-.4,1.3-.4,2.3s.1,1.7.4,2.2c.3.5.6.8,1.1.8s.9-.3,1.2-.8c.3-.5.4-1.2.4-2.2s-.1-1.8-.4-2.3c-.3-.5-.6-.8-1.2-.8ZM325.3,314.8c.8,0,1.4.3,1.9,1,.4.6.6,1.6.6,2.8s-.2,2.2-.6,2.8c-.4.6-1.1,1-1.9,1s-1.4-.3-1.9-1c-.4-.6-.6-1.6-.6-2.8s.2-2.2.6-2.8c.4-.6,1.1-1,1.9-1Z"/>
  <rect class="cls-3" x="57.6" y="41.5" width="357.1" height="266.1"/>
  <path id="m7e07ac80d6-7" data-name="m7e07ac80d6" class="cls-11" d="M369.8,307.6v3.5"/>
  <path id="DejaVuSans-38" class="cls-5" d="M366.7,318.7c-.5,0-.8.1-1.1.4-.3.3-.4.6-.4,1s.1.8.4,1c.3.3.6.4,1.1.4s.8-.1,1.1-.4c.3-.3.4-.6.4-1s-.1-.8-.4-1c-.3-.3-.6-.4-1.1-.4ZM365.7,318.3c-.4-.1-.8-.3-1-.6-.2-.3-.4-.6-.4-1.1s.2-1,.6-1.4c.4-.3,1-.5,1.7-.5s1.3.2,1.7.5.6.8.6,1.4-.1.8-.4,1.1c-.2.3-.6.5-1,.6.5.1.8.3,1.1.7.3.3.4.7.4,1.2,0,.7-.2,1.3-.6,1.6-.4.4-1,.6-1.9.6s-1.4-.2-1.9-.6c-.4-.4-.6-.9-.6-1.6s.1-.9.4-1.2c.3-.3.6-.5,1.1-.7ZM365.3,316.7c0,.4.1.7.4.9.2.2.6.3,1,.3s.8-.1,1-.3c.2-.2.4-.5.4-.9s-.1-.7-.4-.9c-.2-.2-.6-.3-1-.3s-.8.1-1,.3c-.2.2-.4.5-.4.9Z"/>
  <path id="DejaVuSans-30-7" data-name="DejaVuSans-30" class="cls-5" d="M373,315.5c-.5,0-.9.3-1.1.8-.3.5-.4,1.3-.4,2.3s.1,1.7.4,2.2c.3.5.6.8,1.1.8s.9-.3,1.2-.8c.3-.5.4-1.2.4-2.2s-.1-1.8-.4-2.3c-.3-.5-.6-.8-1.2-.8ZM373,314.8c.8,0,1.4.3,1.9,1,.4.6.6,1.6.6,2.8s-.2,2.2-.6,2.8c-.4.6-1.1,1-1.9,1s-1.4-.3-1.9-1c-.4-.6-.6-1.6-.6-2.8s.2-2.2.6-2.8c.4-.6,1.1-1,1.9-1Z"/>
  <rect class="cls-3" x="57.6" y="41.5" width="357.1" height="266.1"/>
  <path class="cls-8" d="M57.6,307.6h357.1"/>
  <path id="m3eace8ef90" class="cls-11" d="M57.6,307.6h-3.5"/>
  <path id="DejaVuSans-30-8" data-name="DejaVuSans-30" class="cls-5" d="M47.4,304.7c-.5,0-.9.3-1.1.8-.3.5-.4,1.3-.4,2.3s.1,1.7.4,2.2c.3.5.6.8,1.1.8s.9-.3,1.2-.8c.3-.5.4-1.2.4-2.2s-.1-1.8-.4-2.3c-.3-.5-.6-.8-1.2-.8ZM47.4,304c.8,0,1.4.3,1.9,1,.4.6.6,1.6.6,2.8s-.2,2.2-.6,2.8c-.4.6-1.1,1-1.9,1s-1.4-.3-1.9-1c-.4-.6-.6-1.6-.6-2.8s.2-2.2.6-2.8c.4-.6,1.1-1,1.9-1Z"/>
  <rect class="cls-3" x="57.6" y="41.5" width="357.1" height="266.1"/>
  <path id="m3eace8ef90-2" data-name="m3eace8ef90" class="cls-11" d="M57.6,254.3h-3.5"/>
  <path id="DejaVuSans-35-2" data-name="DejaVuSans-35" class="cls-5" d="M39,250.8h3.9v.8h-3v1.8c.1,0,.3,0,.4-.1.1,0,.3,0,.4,0,.8,0,1.5.2,1.9.7.5.4.7,1,.7,1.8s-.2,1.4-.7,1.8c-.5.4-1.2.7-2.1.7s-.6,0-.9,0c-.3,0-.6-.1-1-.2v-1c.3.2.6.3.9.4s.6.1,1,.1c.6,0,1-.1,1.3-.4.3-.3.5-.7.5-1.2s-.2-.9-.5-1.2c-.3-.3-.8-.4-1.3-.4s-.5,0-.8,0c-.3,0-.5.1-.8.3v-3.7Z"/>
  <path id="DejaVuSans-30-9" data-name="DejaVuSans-30" class="cls-5" d="M47.4,251.5c-.5,0-.9.3-1.1.8-.3.5-.4,1.3-.4,2.3s.1,1.7.4,2.2c.3.5.6.8,1.1.8s.9-.3,1.2-.8c.3-.5.4-1.2.4-2.2s-.1-1.8-.4-2.3c-.3-.5-.6-.8-1.2-.8ZM47.4,250.7c.8,0,1.4.3,1.9,1,.4.6.6,1.6.6,2.8s-.2,2.2-.6,2.8c-.4.6-1.1,1-1.9,1s-1.4-.3-1.9-1c-.4-.6-.6-1.6-.6-2.8s.2-2.2.6-2.8c.4-.6,1.1-1,1.9-1Z"/>
  <rect class="cls-3" x="57.6" y="41.5" width="357.1" height="266.1"/>
  <path id="m3eace8ef90-3" data-name="m3eace8ef90" class="cls-11" d="M57.6,201.1h-3.5"/>
  <path id="DejaVuSans-31" class="cls-5" d="M32.8,204.1h1.6v-5.6l-1.8.4v-.9l1.7-.4h1v6.5h1.6v.8h-4.2v-.8Z"/>
  <path id="DejaVuSans-30-10" data-name="DejaVuSans-30" class="cls-5" d="M41.1,198.3c-.5,0-.9.3-1.1.8-.3.5-.4,1.3-.4,2.3s.1,1.7.4,2.2c.3.5.6.8,1.1.8s.9-.3,1.2-.8c.3-.5.4-1.2.4-2.2s-.1-1.8-.4-2.3c-.3-.5-.6-.8-1.2-.8ZM41.1,197.5c.8,0,1.4.3,1.9,1,.4.6.6,1.6.6,2.8s-.2,2.2-.6,2.8c-.4.6-1.1,1-1.9,1s-1.4-.3-1.9-1c-.4-.6-.6-1.6-.6-2.8s.2-2.2.6-2.8c.4-.6,1.1-1,1.9-1Z"/>
  <path id="DejaVuSans-30-11" data-name="DejaVuSans-30" class="cls-5" d="M47.4,198.3c-.5,0-.9.3-1.1.8-.3.5-.4,1.3-.4,2.3s.1,1.7.4,2.2c.3.5.6.8,1.1.8s.9-.3,1.2-.8c.3-.5.4-1.2.4-2.2s-.1-1.8-.4-2.3c-.3-.5-.6-.8-1.2-.8ZM47.4,197.5c.8,0,1.4.3,1.9,1,.4.6.6,1.6.6,2.8s-.2,2.2-.6,2.8c-.4.6-1.1,1-1.9,1s-1.4-.3-1.9-1c-.4-.6-.6-1.6-.6-2.8s.2-2.2.6-2.8c.4-.6,1.1-1,1.9-1Z"/>
  <rect class="cls-3" x="57.6" y="41.5" width="357.1" height="266.1"/>
  <path id="m3eace8ef90-4" data-name="m3eace8ef90" class="cls-11" d="M57.6,147.9h-3.5"/>
  <path id="DejaVuSans-31-2" data-name="DejaVuSans-31" class="cls-5" d="M32.8,150.8h1.6v-5.6l-1.8.4v-.9l1.7-.4h1v6.5h1.6v.8h-4.2v-.8Z"/>
  <path id="DejaVuSans-35-3" data-name="DejaVuSans-35" class="cls-5" d="M39,144.4h3.9v.8h-3v1.8c.1,0,.3,0,.4-.1.1,0,.3,0,.4,0,.8,0,1.5.2,1.9.7.5.4.7,1,.7,1.8s-.2,1.4-.7,1.8c-.5.4-1.2.7-2.1.7s-.6,0-.9,0c-.3,0-.6-.1-1-.2v-1c.3.2.6.3.9.4s.6.1,1,.1c.6,0,1-.1,1.3-.4.3-.3.5-.7.5-1.2s-.2-.9-.5-1.2c-.3-.3-.8-.4-1.3-.4s-.5,0-.8,0c-.3,0-.5.1-.8.3v-3.7Z"/>
  <path id="DejaVuSans-30-12" data-name="DejaVuSans-30" class="cls-5" d="M47.4,145c-.5,0-.9.3-1.1.8-.3.5-.4,1.3-.4,2.3s.1,1.7.4,2.2c.3.5.6.8,1.1.8s.9-.3,1.2-.8c.3-.5.4-1.2.4-2.2s-.1-1.8-.4-2.3c-.3-.5-.6-.8-1.2-.8ZM47.4,144.2c.8,0,1.4.3,1.9,1,.4.6.6,1.6.6,2.8s-.2,2.2-.6,2.8c-.4.6-1.1,1-1.9,1s-1.4-.3-1.9-1c-.4-.6-.6-1.6-.6-2.8s.2-2.2.6-2.8c.4-.6,1.1-1,1.9-1Z"/>
  <rect class="cls-3" x="57.6" y="41.5" width="357.1" height="266.1"/>
  <path id="m3eace8ef90-5" data-name="m3eace8ef90" class="cls-11" d="M57.6,94.6h-3.5"/>
  <path id="DejaVuSans-32-2" data-name="DejaVuSans-32" class="cls-5" d="M33.4,97.6h3.4v.8h-4.6v-.8c.4-.4.9-.9,1.5-1.6.6-.7,1.1-1.1,1.2-1.3.3-.4.5-.7.7-.9.1-.2.2-.5.2-.7,0-.4-.1-.7-.4-.9-.3-.2-.6-.4-1.1-.4s-.6,0-1,.2c-.3.1-.7.3-1.1.5v-1c.4-.2.8-.3,1.1-.4.3,0,.7-.1.9-.1.8,0,1.4.2,1.8.6.4.4.7.9.7,1.5s0,.6-.2.9c-.1.3-.3.6-.6.9,0,0-.3.4-.8.8-.4.5-1.1,1.1-1.8,1.9Z"/>
  <path id="DejaVuSans-30-13" data-name="DejaVuSans-30" class="cls-5" d="M41.1,91.8c-.5,0-.9.3-1.1.8-.3.5-.4,1.3-.4,2.3s.1,1.7.4,2.2c.3.5.6.8,1.1.8s.9-.3,1.2-.8c.3-.5.4-1.2.4-2.2s-.1-1.8-.4-2.3c-.3-.5-.6-.8-1.2-.8ZM41.1,91c.8,0,1.4.3,1.9,1,.4.6.6,1.6.6,2.8s-.2,2.2-.6,2.8c-.4.6-1.1,1-1.9,1s-1.4-.3-1.9-1c-.4-.6-.6-1.6-.6-2.8s.2-2.2.6-2.8c.4-.6,1.1-1,1.9-1Z"/>
  <path id="DejaVuSans-30-14" data-name="DejaVuSans-30" class="cls-5" d="M47.4,91.8c-.5,0-.9.3-1.1.8-.3.5-.4,1.3-.4,2.3s.1,1.7.4,2.2c.3.5.6.8,1.1.8s.9-.3,1.2-.8c.3-.5.4-1.2.4-2.2s-.1-1.8-.4-2.3c-.3-.5-.6-.8-1.2-.8ZM47.4,91c.8,0,1.4.3,1.9,1,.4.6.6,1.6.6,2.8s-.2,2.2-.6,2.8c-.4.6-1.1,1-1.9,1s-1.4-.3-1.9-1c-.4-.6-.6-1.6-.6-2.8s.2-2.2.6-2.8c.4-.6,1.1-1,1.9-1Z"/>
  <path class="cls-10" d="M57.6,307.6V41.5"/>
  <path class="cls-10" d="M57.6,307.6h357.1"/>
  <g>
    <polyline class="cls-10" points="393.6 293.1 410.8 231.8 392.1 298.5"/>
    <polygon class="cls-5" points="392.1 298.5 397.4 291.7 393.8 292.7 391.1 290 392.1 298.5"/>
  </g>
  <text class="cls-12" transform="translate(369.8 210.7) scale(.9 1)"><tspan class="cls-13" x="0" y="0">The </tspan><tspan class="cls-1" x="21.6" y="0">three </tspan><tspan class="cls-13" x="51.4" y="0">prisoners </tspan><tspan class="cls-13"><tspan x="0" y="14.7">who are older than</tspan></tspan><tspan class="cls-13"><tspan x="0" y="29.4">Trump</tspan></tspan></text>
  <text/>
  <g>
    <path class="cls-5" d="M418.8,324.7l-.8,2.3h-1l2.5-7.4h1.2l2.5,7.4h-1l-.8-2.3h-2.6ZM421.3,323.9l-.7-2.1c-.2-.5-.3-.9-.4-1.4h0c-.1.4-.2.9-.4,1.3l-.7,2.1h2.2Z"/>
    <path class="cls-5" d="M428.8,321.7c0,.4,0,.8,0,1.5v3.1c0,1.2-.2,2-.8,2.4-.5.5-1.3.6-1.9.6s-1.3-.2-1.8-.4l.2-.7c.4.2.9.4,1.6.4,1,0,1.7-.5,1.7-1.9v-.6h0c-.3.5-.9.9-1.7.9-1.3,0-2.3-1.1-2.3-2.6s1.2-2.8,2.4-2.8,1.4.5,1.7.9h0v-.8h.9ZM427.8,323.8c0-.2,0-.3,0-.4-.2-.6-.6-1-1.4-1s-1.6.8-1.6,2,.5,1.9,1.6,1.9,1.1-.4,1.3-1c0-.2,0-.4,0-.5v-1Z"/>
    <path class="cls-5" d="M430.9,324.5c0,1.3.9,1.8,1.8,1.8s1.1-.1,1.5-.3l.2.7c-.3.2-.9.3-1.8.3-1.6,0-2.6-1.1-2.6-2.7s.9-2.9,2.5-2.9,2.2,1.5,2.2,2.5,0,.4,0,.5h-3.7ZM433.7,323.8c0-.6-.3-1.6-1.3-1.6s-1.4.9-1.5,1.6h2.8Z"/>
  </g>
  <g>
    <path class="cls-5" d="M24.2,48.1c-.4.2-1.1.4-2,.4-2.1,0-3.7-1.3-3.7-3.8s1.6-3.9,3.9-3.9,1.5.2,1.8.3l-.2.8c-.4-.2-.9-.3-1.5-.3-1.7,0-2.9,1.1-2.9,3.1s1,3,2.8,3,1.2-.1,1.6-.3l.2.8Z"/>
    <path class="cls-5" d="M30.1,45.6c0,2-1.4,2.8-2.7,2.8s-2.6-1.1-2.6-2.7,1.2-2.8,2.6-2.8,2.6,1.1,2.6,2.7ZM25.8,45.7c0,1.2.7,2,1.6,2s1.6-.9,1.6-2.1-.5-2-1.6-2-1.6,1.1-1.6,2.1Z"/>
    <path class="cls-5" d="M35.7,46.9c0,.5,0,1,0,1.5h-.9v-.9h0c-.3.4-.8,1-1.8,1s-1.8-.5-1.8-2.3v-3.1h1v2.9c0,1,.3,1.7,1.2,1.7s1.1-.5,1.3-.9c0-.1,0-.3,0-.5v-3.3h1v3.9Z"/>
    <path class="cls-5" d="M37.3,44.4c0-.5,0-1,0-1.4h.9v.9h0c.3-.5.9-1,1.8-1s1.9.4,1.9,2.3v3.2h-1v-3.1c0-.9-.3-1.6-1.2-1.6s-1.1.5-1.3,1c0,.1,0,.3,0,.5v3.2h-1v-3.9Z"/>
    <path class="cls-5" d="M44.6,41.5v1.5h1.4v.7h-1.4v2.9c0,.7.2,1,.7,1s.4,0,.6,0v.7c-.1,0-.4.1-.8.1s-.8-.1-1-.4c-.3-.3-.4-.8-.4-1.4v-2.9h-.8v-.7h.8v-1.3l.9-.3Z"/>
  </g>
  <text/>
  <text/>
  <text/>
  <g>
    <path class="cls-5" d="M366,307.6l-.9-185.3.9,185.3Z"/>
    <g>
      <polyline class="cls-7" points="366 301.6 366 307.6 366 301.6"/>
      <line class="cls-9" x1="365.9" y1="290" x2="365.2" y2="134.1"/>
      <polyline class="cls-7" points="365.2 128.3 365.1 122.3 365.2 128.3"/>
      <line class="cls-9" x1="365.2" y1="139.8" x2="366" y2="295.8"/>
    </g>
  </g>
  <g>
    <path class="cls-5" d="M353.7,111.4h-2.3v-.8h5.5v.8h-2.3v6.6h-1v-6.6Z"/>
    <path class="cls-5" d="M357.2,114.4c0-.6,0-1.2,0-1.7h.8v1h0c.2-.7.8-1.2,1.5-1.2s.2,0,.3,0v.9c0,0-.2,0-.3,0-.7,0-1.2.5-1.3,1.2,0,.1,0,.3,0,.5v2.8h-1v-3.7Z"/>
    <path class="cls-5" d="M365.2,116.6c0,.5,0,1,0,1.5h-.9v-.9h0c-.3.4-.8,1-1.8,1s-1.8-.5-1.8-2.3v-3.1h1v2.9c0,1,.3,1.7,1.2,1.7s1.1-.5,1.3-.9c0-.1,0-.3,0-.5v-3.3h1v3.9Z"/>
    <path class="cls-5" d="M366.8,114.2c0-.5,0-1,0-1.4h.8v.9h0c.3-.5.8-1,1.7-1s1.3.4,1.5,1.1h0c.2-.3.4-.5.6-.7.3-.2.7-.4,1.2-.4s1.7.5,1.7,2.3v3.1h-.9v-3c0-1-.4-1.6-1.2-1.6s-1,.4-1.1.9c0,.1,0,.3,0,.5v3.3h-.9v-3.2c0-.8-.4-1.5-1.1-1.5s-1,.5-1.2,1c0,.1,0,.3,0,.5v3.2h-.9v-3.9Z"/>
    <path class="cls-5" d="M376,114.5c0-.7,0-1.2,0-1.7h.9v.9h0c.4-.6,1-1,1.9-1,1.3,0,2.3,1.1,2.3,2.7s-1.2,2.9-2.4,2.9-1.3-.3-1.6-.8h0v2.9h-1v-5.8ZM377,115.9c0,.1,0,.3,0,.4.2.7.8,1.1,1.5,1.1,1,0,1.6-.8,1.6-2.1s-.6-2-1.6-2-1.3.5-1.5,1.2c0,.1,0,.3,0,.4v.9Z"/>
  </g>
  <text/>
</svg>